<?xml version="1.0" standalone="no"?>
<!DOCTYPE svg PUBLIC "-//W3C//DTD SVG 20010904//EN"
 "http://www.w3.org/TR/2001/REC-SVG-20010904/DTD/svg10.dtd">
<svg version="1.0" xmlns="http://www.w3.org/2000/svg"
 width="960.000000pt" height="960.000000pt" viewBox="0 0 960.000000 960.000000"
 preserveAspectRatio="xMidYMid meet">
<metadata>
Created by potrace 1.11, written by Peter Selinger 2001-2013
</metadata>
<g transform="translate(0.000000,960.000000) scale(0.100000,-0.100000)"
fill="#000000" stroke="none">
<path d="M4618 7385 c-1 -1 -32 -5 -68 -9 -91 -8 -143 -16 -230 -33 -41 -8
-88 -17 -104 -19 -160 -29 -494 -160 -702 -277 -213 -119 -473 -331 -646 -527
-97 -110 -106 -122 -182 -230 -314 -445 -473 -949 -473 -1490 0 -194 23 -418
61 -575 2 -11 9 -40 15 -65 36 -156 135 -416 219 -570 25 -47 51 -95 56 -107
6 -13 14 -23 19 -23 4 0 7 -5 7 -10 0 -14 88 -146 154 -230 435 -562 1049
-913 1751 -1001 111 -14 463 -18 565 -6 138 15 244 33 366 62 382 89 827 325
1114 592 111 103 129 121 211 214 267 301 463 670 565 1063 18 70 35 149 39
174 3 25 8 48 9 51 4 7 14 89 26 206 8 80 5 415 -4 490 -14 116 -19 150 -42
265 -16 79 -50 211 -64 245 -5 11 -14 38 -20 60 -7 22 -18 54 -26 72 -8 17
-14 34 -14 38 0 7 -33 81 -66 148 -13 26 -21 47 -18 47 2 0 -7 18 -21 40 -14
22 -25 42 -25 45 0 9 -125 210 -132 213 -5 2 -8 8 -8 13 0 8 -20 37 -99 138
-153 199 -372 404 -589 552 -113 76 -131 87 -257 154 -245 131 -577 237 -850
271 -27 3 -61 8 -75 11 -28 5 -456 13 -462 8z"/>
</g>
</svg>
